# xmcd
#
# Track frame offsets:
#	150
#	2325
#	16062
#	34317
#	53780
#	71875
#	90160
#	107572
#	126190
#	144870
#	163712
#	183087
#	199505
#	220525
#	238337
#	258072
#	275750
#	305435
#
# Disc length: 4508
#
# Revision: 3
# Processed by: cddbd v1.5.1PL0 Copyright (c) Steve Scherf et al.
# Submitted via: EasyCDDAExtractor 6.5.0.1
# Normalized: r2:DSETVAR1
#
DISCID=e7119a12
DTITLE=Various Artist - The Preacher's Son
DYEAR=2003
DGENRE=Rap
TTITLE0=Wyclef Jean - Intro
TTITLE1=Wyclef Jean - Industry
TTITLE2=Wyclef Jean feat. Missy Elliot - Party To Damascus
TTITLE3=Wyclef Jean feat. Patti LaBelle and Cassidy - Celebrate
TTITLE4=Wyclef Jean feat. Redman - Baby Dady
TTITLE5=Wyclef Jean feat. Carlos Santana - Three Nights In Rio
TTITLE6=Wyclef Jean feat. Monica - Class Reunion
TTITLE7=Wyclef Jean - Baby
TTITLE8=Wyclef Jean feat. Wayne Wonder and Elephant Man - I Am Your Doctor
TTITLE9=Wyclef Jean feat. Carl Restivo - Linda
TTITLE10=Wyclef Jean feat. Sharissa - Take Me As I Am
TTITLE11=Wyclef Jean - Grateful
TTITLE12=Wyclef Jean feat. Scarface and Rah Digga - Next Generation
TTITLE13=Wyclef Jean feat. Prodigy Of Mobb Deep - Rebel Music
TTITLE14=Wyclef Jean feat. Buju Banton - Who Gave The Order
TTITLE15=Wyclef Jean feat. Buju Banton and T-Vice - Party By The Sea
TTITLE16=Wyclef Jean feat. Missy Elliot - Bonus Track: Party To Damascus Remix
TTITLE17=Wyclef Jean - Enhanced CD
EXTD=YEAR: 2003
EXTT0=
EXTT1=
EXTT2=
EXTT3=
EXTT4=
EXTT5=
EXTT6=
EXTT7=
EXTT8=
EXTT9=
EXTT10=
EXTT11=
EXTT12=
EXTT13=
EXTT14=
EXTT15=
EXTT16=
EXTT17=
PLAYORDER=
